# xmcd
#
# Track frame offsets:
#	150
#	13793
#	29713
#	44088
#	62302
#	76284
#	92668
#	110341
#	128677
#	142109
#	155819
#
# Disc length: 2264 seconds
#
# Revision: 1
# Processed by: cddbd v1.5.2PL0 Copyright (c) Steve Scherf et al.
# Submitted via: EasyCDDAExtractor 7.0.3.1
#
DISCID=9408d60b
DTITLE=Sarah Johns - Big Love in a Small Town
DYEAR=2007
DGENRE=Country
TTITLE0=When Do I Get to be a Woman
TTITLE1=If You Could Hold Your Woman
TTITLE2=A Lot to Let Go Of
TTITLE3=Baby My Heart
TTITLE4=Big Love in a Small Town
TTITLE5=Touch Me
TTITLE6=The One In the Middle
TTITLE7=That's Just Me Getting Over You
TTITLE8=He Hates Me
TTITLE9=Muddy Water
TTITLE10=It's Hard To Be A Girl (In A Young Man's World)
EXTD=
EXTT0=
EXTT1=
EXTT2=
EXTT3=
EXTT4=
EXTT5=
EXTT6=
EXTT7=
EXTT8=
EXTT9=
EXTT10=
PLAYORDER=
